<svg xmlns="http://www.w3.org/2000/svg" viewBox="0 0 32 32">
  <rect width="32" height="32" rx="7" fill="#7C3AED"/>
  <!--
    Raven path originale su viewBox 24x24.
    Scale 1.1 → 26.4×26.4, centrato in 32×32: translate((32-26.4)/2) = 2.8
  -->
  <g transform="translate(2.8,2.8) scale(1.1)">
    <path
      fill-rule="evenodd"
      fill="white"
      d="M5 20C3.5 16 3.5 10 5.5 7C7 5 9.5 3.5 12.5 3.5C15.5 3.5 17.5 5 18.5 6.5L22 9C22.5 10 22 11.2 21 11L18.5 10C17.5 10.5 16.5 12 15.5 14C14 17 12 19.5 9.5 21L7.5 21.5L6 20.5Z M16.2 7a1.25 1.25 0 1 0-2.5 0a1.25 1.25 0 1 0 2.5 0"
    />
  </g>
</svg>
